<?xml version="1.0" encoding="UTF-8" standalone="no"?>
<svg
   viewBox="0 0 104 104"
   version="1.1"
   id="svg14"
   sodipodi:docname="logo.svg"
   inkscape:version="1.4.2 (ebf0e940d0, 2025-05-08)"
   width="104"
   height="104"
   xmlns:inkscape="http://www.inkscape.org/namespaces/inkscape"
   xmlns:sodipodi="http://sodipodi.sourceforge.net/DTD/sodipodi-0.dtd"
   xmlns="http://www.w3.org/2000/svg"
   xmlns:svg="http://www.w3.org/2000/svg">
  <sodipodi:namedview
     id="namedview14"
     pagecolor="#ffffff"
     bordercolor="#000000"
     borderopacity="0.25"
     inkscape:showpageshadow="2"
     inkscape:pageopacity="0.0"
     inkscape:pagecheckerboard="0"
     inkscape:deskcolor="#d1d1d1"
     inkscape:zoom="7.0078125"
     inkscape:cx="47.875139"
     inkscape:cy="52.084727"
     inkscape:window-width="2048"
     inkscape:window-height="1083"
     inkscape:window-x="0"
     inkscape:window-y="0"
     inkscape:window-maximized="1"
     inkscape:current-layer="svg14" />
  <defs
     id="defs10">
    <!-- Outer doll gradient -->
    <linearGradient
       id="doll1"
       x1="16.653328"
       y1="11.529227"
       x2="16.653328"
       y2="111.4492"
       gradientTransform="matrix(0.96076892,0,0,1.040833,-16,-12)"
       gradientUnits="userSpaceOnUse">
      <stop
         offset="0%"
         style="stop-color:#7C3AED"
         id="stop1" />
      <stop
         offset="100%"
         style="stop-color:#5B21B6"
         id="stop2" />
    </linearGradient>
    <!-- Middle doll gradient -->
    <linearGradient
       id="doll2"
       x1="34.409302"
       y1="26.039471"
       x2="34.409302"
       y2="94.85807"
       gradientTransform="matrix(0.92998111,0,0,1.0752907,-16,-12)"
       gradientUnits="userSpaceOnUse">
      <stop
         offset="0%"
         style="stop-color:#A855F7"
         id="stop3" />
      <stop
         offset="100%"
         style="stop-color:#7C3AED"
         id="stop4" />
    </linearGradient>
    <!-- Inner doll gradient -->
    <linearGradient
       id="doll3"
       x1="51.997864"
       y1="37.155373"
       x2="51.997864"
       y2="77.84935"
       gradientTransform="matrix(0.88465174,0,0,1.1303883,-16,-12)"
       gradientUnits="userSpaceOnUse">
      <stop
         offset="0%"
         style="stop-color:#C4B5FD"
         id="stop5" />
      <stop
         offset="100%"
         style="stop-color:#A855F7"
         id="stop6" />
    </linearGradient>
    <!-- Core gradient -->
    <radialGradient
       id="core"
       cx="69.127899"
       cy="57.771175"
       r="15.553778"
       gradientTransform="matrix(0.9258201,0,0,1.0801234,-16,-12)"
       fx="69.127899"
       fy="57.771175"
       gradientUnits="userSpaceOnUse">
      <stop
         offset="0%"
         style="stop-color:#F5F3FF"
         id="stop7" />
      <stop
         offset="100%"
         style="stop-color:#DDD6FE"
         id="stop8" />
    </radialGradient>
    <!-- Shield gradient -->
    <linearGradient
       id="shieldGrad"
       x1="65.665817"
       y1="49.462566"
       x2="65.665817"
       y2="68.224228"
       gradientTransform="matrix(0.85280287,0,0,1.1726039,-16,-12)"
       gradientUnits="userSpaceOnUse">
      <stop
         offset="0%"
         style="stop-color:#7C3AED"
         id="stop9" />
      <stop
         offset="100%"
         style="stop-color:#5B21B6"
         id="stop10" />
    </linearGradient>
    <!-- Subtle shadow -->
    <filter
       id="shadow"
       x="-4.2977231e-10"
       y="-3.967129e-10"
       width="1"
       height="1">
      <feDropShadow
         dx="0"
         dy="2"
         stdDeviation="2"
         flood-color="#5B21B6"
         flood-opacity="0.3" />
      <feGaussianBlur
         stdDeviation="1.7190893e-08"
         id="feGaussianBlur14" />
    </filter>
  </defs>
  <!-- Outer doll (largest) -->
  <!-- Outer doll face area -->
  <!-- Middle doll -->
  <!-- Middle doll face area -->
  <!-- Inner doll -->
  <!-- Inner doll face area -->
  <!-- Core (the seed/origin) -->
  <!-- Shield inside the core -->
  <!-- Shield inner highlight -->
  <g
     id="g1"
     transform="scale(1.0833333,1)">
    <path
       d="M 48,4.1258144e-8 C 14,4.1258144e-8 4.125814e-8,33 4.125814e-8,63 4.125814e-8,88 19,104 48,104 77,104 96,88 96,63 96,33 82,4.1258144e-8 48,4.1258144e-8 Z"
       fill="url(#doll1)"
       filter="url(#shadow)"
       id="path10"
       style="fill:url(#doll1)" />
    <ellipse
       cx="48"
       cy="26"
       rx="20"
       ry="18"
       fill="#4c1d95"
       opacity="0.3"
       id="ellipse10" />
    <path
       d="M 48,16 C 26,16 16,38 16,60 16,78 29,90 48,90 67,90 80,78 80,60 80,38 70,16 48,16 Z"
       fill="url(#doll2)"
       id="path11"
       style="fill:url(#doll2)" />
    <ellipse
       cx="48"
       cy="36"
       rx="14"
       ry="12"
       fill="#5b21b6"
       opacity="0.3"
       id="ellipse11" />
    <path
       d="M 48,30 C 36,30 30,43 30,56 30,68 37,76 48,76 59,76 66,68 66,56 66,43 60,30 48,30 Z"
       fill="url(#doll3)"
       id="path12"
       style="fill:url(#doll3)" />
    <ellipse
       cx="48"
       cy="43"
       rx="10"
       ry="8"
       fill="#7c3aed"
       opacity="0.3"
       id="ellipse12" />
    <ellipse
       cx="48"
       cy="56"
       rx="12"
       ry="14"
       fill="url(#core)"
       id="ellipse13"
       style="fill:url(#core)" />
    <path
       d="m 48,46 8,4 v 6 c 0,6 -4,10 -8,12 -4,-2 -8,-6 -8,-12 v -6 z"
       fill="url(#shieldGrad)"
       id="path13"
       style="fill:url(#shieldGrad)" />
    <path
       d="m 48,49 5,3 v 4 c 0,4 -2,7 -5,8 -3,-1 -5,-4 -5,-8 v -4 z"
       fill="none"
       stroke="rgba(255,255,255,0.4)"
       stroke-width="0.8"
       id="path14" />
  </g>
</svg>
