<?xml version="1.0" encoding="UTF-8" standalone="no"?>
<svg
   viewBox="0 0 96 104"
   version="1.1"
   id="svg5"
   sodipodi:docname="logo-solid.svg"
   width="96"
   height="104"
   inkscape:version="1.4.2 (ebf0e940d0, 2025-05-08)"
   xmlns:inkscape="http://www.inkscape.org/namespaces/inkscape"
   xmlns:sodipodi="http://sodipodi.sourceforge.net/DTD/sodipodi-0.dtd"
   xmlns="http://www.w3.org/2000/svg"
   xmlns:svg="http://www.w3.org/2000/svg">
  <defs
     id="defs5" />
  <sodipodi:namedview
     id="namedview5"
     pagecolor="#ffffff"
     bordercolor="#000000"
     borderopacity="0.25"
     inkscape:showpageshadow="2"
     inkscape:pageopacity="0.0"
     inkscape:pagecheckerboard="0"
     inkscape:deskcolor="#d1d1d1"
     inkscape:zoom="6.8125"
     inkscape:cx="47.926606"
     inkscape:cy="51.963303"
     inkscape:window-width="2048"
     inkscape:window-height="1083"
     inkscape:window-x="0"
     inkscape:window-y="0"
     inkscape:window-maximized="1"
     inkscape:current-layer="svg5" />
  <!-- Outer doll (largest) -->
  <path
     d="M 48,0 C 14,0 0,33 0,63 0,88 19,104 48,104 77,104 96,88 96,63 96,33 82,0 48,0 Z"
     fill="#7c3aed"
     id="path1" />
  <!-- Outer doll face area -->
  <ellipse
     cx="48"
     cy="26"
     rx="20"
     ry="18"
     fill="#4c1d95"
     opacity="0.3"
     id="ellipse1" />
  <!-- Middle doll -->
  <path
     d="M 48,16 C 26,16 16,38 16,60 16,78 29,90 48,90 67,90 80,78 80,60 80,38 70,16 48,16 Z"
     fill="#a855f7"
     id="path2" />
  <!-- Middle doll face area -->
  <ellipse
     cx="48"
     cy="36"
     rx="14"
     ry="12"
     fill="#5b21b6"
     opacity="0.3"
     id="ellipse2" />
  <!-- Inner doll -->
  <path
     d="M 48,30 C 36,30 30,43 30,56 30,68 37,76 48,76 59,76 66,68 66,56 66,43 60,30 48,30 Z"
     fill="#c4b5fd"
     id="path3" />
  <!-- Inner doll face area -->
  <ellipse
     cx="48"
     cy="43"
     rx="10"
     ry="8"
     fill="#7c3aed"
     opacity="0.3"
     id="ellipse3" />
  <!-- Core (the seed/origin) -->
  <ellipse
     cx="48"
     cy="56"
     rx="12"
     ry="14"
     fill="#f5f3ff"
     id="ellipse4" />
  <!-- Shield inside the core -->
  <path
     d="m 48,46 8,4 v 6 c 0,6 -4,10 -8,12 -4,-2 -8,-6 -8,-12 v -6 z"
     fill="#7c3aed"
     id="path4" />
  <!-- Shield inner highlight -->
  <path
     d="m 48,49 5,3 v 4 c 0,4 -2,7 -5,8 -3,-1 -5,-4 -5,-8 v -4 z"
     fill="none"
     stroke="rgba(255,255,255,0.4)"
     stroke-width="0.8"
     id="path5" />
</svg>
